<svg width="1469" height="204" viewBox="0 0 1469 204" fill="none" xmlns="http://www.w3.org/2000/svg">
<g clip-path="url(#clip0)">
<g clip-path="url(#clip1)">
<mask id="mask0" mask-type="alpha" maskUnits="userSpaceOnUse" x="0" y="2" width="238" height="207">
<path d="M118.51 2.85938L0 207.833H64.0921L90.0918 163.09L116.696 208.438H237.02L118.51 2.85938Z" fill="white"/>
</mask>
<g mask="url(#mask0)">
<path fill-rule="evenodd" clip-rule="evenodd" d="M152.46 153.267H198.484L175.414 113.31L152.345 153.267H152.46ZM146.343 150.147L123.273 110.19H169.412L146.343 150.147ZM95.9668 159.313H141.05L141.05 159.314H141.163L118.095 199.27L95.0263 159.314H95.9671L95.9668 159.313ZM175 198.554L152.345 159.314H197.656L175 198.554ZM146.755 163.148L169.413 202.393H124.097L146.755 163.148ZM226.727 202.393L203.661 162.44L180.594 202.393H226.727ZM61.5996 113.315L84.6657 153.267H84.5533H38.5335L61.5996 113.315ZM39.3574 159.314L62.4257 199.27L85.494 159.314H39.3574ZM56.4231 202.393L33.3545 162.437L10.2858 202.393H56.4231ZM90.6714 150.142L113.738 110.19H67.605L90.6714 150.142ZM118.507 14.3472L141.987 55.0162H95.0263L118.507 14.3472ZM147.166 64.1857L124.097 104.142H170.234L147.166 64.1857ZM112.916 104.142L89.8463 64.184L66.7767 104.142H112.916ZM118.506 100.307L141.163 61.0632H95.8482L118.506 100.307Z" fill="white"/>
</g>
</g>
<g clip-path="url(#clip2)">
<path d="M352.787 146.544L357.963 160.682H385.987L349.505 72.1915H322.491L284.746 160.682H311.761L317.063 146.544H352.787ZM345.844 127.356H324.384L335.24 98.4483L345.844 127.356ZM398.753 72.1915V160.682H436.624C465.784 160.682 485.098 143.009 485.098 116.374C485.098 89.7381 466.163 72.1915 437.507 72.1915H398.753ZM425.01 92.894H437.003C449.626 92.894 458.336 102.362 458.336 116.626C458.336 130.764 450.257 140.106 438.265 140.106H425.01V92.894ZM619.881 72.3177L595.518 144.524L571.155 72.3177H559.541L534.673 144.145L510.814 72.3177H497.812L527.351 160.682H540.858L564.969 90.1168L589.08 160.682H602.335L631.874 72.3177H619.881ZM692.531 161.692C719.42 161.692 739.365 142.504 739.365 116.5C739.365 90.4955 719.42 71.3078 692.531 71.3078C665.391 71.3078 645.446 90.6218 645.446 116.5C645.446 142.378 665.391 161.692 692.531 161.692ZM692.531 150.457C672.713 150.457 658.069 136.066 658.069 116.5C658.069 96.9335 672.713 82.5427 692.531 82.5427C712.098 82.5427 726.741 96.9335 726.741 116.5C726.741 136.066 712.098 150.457 692.531 150.457ZM837.808 160.682L816.853 131.017C829.224 126.599 836.293 116.752 836.293 103.119C836.293 83.9313 822.407 72.3177 799.433 72.3177H764.971V160.682H777.594V133.794H799.433C801.326 133.794 803.22 133.668 804.987 133.542L824.048 160.682H837.808ZM799.054 123.064H777.594V83.3001H799.054C815.212 83.3001 823.67 90.4955 823.67 103.119C823.67 115.743 815.212 123.064 799.054 123.064ZM863 160.682H923.466V149.7H875.623V72.3177H863V160.682ZM944.264 160.682H981.503C1009.91 160.682 1029.22 142.757 1029.22 116.5C1029.22 90.2431 1009.91 72.3177 981.503 72.3177H944.264V160.682ZM956.887 149.7V83.3001H980.745C1002.58 83.3001 1016.6 96.681 1016.6 116.5C1016.6 136.319 1002.58 149.7 980.745 149.7H956.887ZM1055.98 161.438C1060.51 161.438 1064.29 157.784 1064.29 152.744C1064.29 147.704 1060.51 144.176 1055.98 144.176C1051.31 144.176 1047.41 147.704 1047.41 152.744C1047.41 157.784 1051.31 161.438 1055.98 161.438ZM1108.75 161.438C1128.78 161.438 1143.4 147.2 1143.4 127.292C1143.4 107.384 1128.78 93.2721 1108.75 93.2721C1088.72 93.2721 1073.97 107.384 1073.97 127.292C1073.97 147.2 1088.72 161.438 1108.75 161.438ZM1108.75 150.854C1095.9 150.854 1086.2 141.53 1086.2 127.292C1086.2 113.054 1095.9 103.856 1108.75 103.856C1121.6 103.856 1131.18 113.054 1131.18 127.292C1131.18 141.53 1121.6 150.854 1108.75 150.854ZM1195.79 93.2721C1185.2 93.2721 1176.64 97.1781 1171.72 103.982V93.9021H1160.13V160.682H1172.23V126.284C1172.23 111.794 1180.54 104.108 1193.39 104.108C1204.86 104.108 1211.41 110.534 1211.41 123.638V160.682H1223.51V122.252C1223.51 102.596 1212.04 93.2721 1195.79 93.2721ZM1245.89 160.682H1257.99V67.1901H1245.89V160.682ZM1287.13 81.0501C1291.92 81.0501 1295.32 77.5221 1295.32 72.9861C1295.32 68.7021 1291.79 65.3001 1287.13 65.3001C1282.47 65.3001 1278.94 68.8281 1278.94 73.2381C1278.94 77.6481 1282.47 81.0501 1287.13 81.0501ZM1281.08 160.682H1293.18V93.9021H1281.08V160.682ZM1351.93 93.2721C1341.35 93.2721 1332.78 97.1781 1327.87 103.982V93.9021H1316.28V160.682H1328.37V126.284C1328.37 111.794 1336.69 104.108 1349.54 104.108C1361.01 104.108 1367.56 110.534 1367.56 123.638V160.682H1379.65V122.252C1379.65 102.596 1368.19 93.2721 1351.93 93.2721ZM1462.76 127.67C1462.76 107.132 1449.03 93.2721 1429.75 93.2721C1410.47 93.2721 1396.23 107.51 1396.23 127.292C1396.23 147.2 1410.6 161.438 1432.14 161.438C1443.23 161.438 1452.43 157.658 1458.48 150.602L1451.8 142.79C1446.89 148.208 1440.33 150.854 1432.52 150.854C1419.29 150.854 1409.84 143.042 1408.33 131.324H1462.51C1462.64 130.19 1462.76 128.678 1462.76 127.67ZM1429.75 103.478C1441.47 103.478 1449.91 111.416 1451.17 122.63H1408.33C1409.59 111.29 1418.16 103.478 1429.75 103.478Z" fill="white"/>
</g>
</g>
<defs>
<clipPath id="clip0">
<rect width="1468.76" height="203.682" fill="white"/>
</clipPath>
<clipPath id="clip1">
<rect width="224.844" height="203.682" fill="white"/>
</clipPath>
<clipPath id="clip2">
<rect width="1183" height="177" fill="white" transform="translate(285.756 26.6821)"/>
</clipPath>
</defs>
</svg>
